<svg width="20" height="18" viewBox="0 0 20 18" fill="none" xmlns="http://www.w3.org/2000/svg">
<g clip-path="url(#clip0_386_669)">
<path fill-rule="evenodd" clip-rule="evenodd" d="M10.0079 0C4.75026 0 0.5 4.05625 0.5 9.07438C0.5 13.0856 3.22329 16.4811 7.00121 17.6828C7.47355 17.7732 7.64656 17.4876 7.64656 17.2473C7.64656 17.037 7.63099 16.3159 7.63099 15.5646C4.98614 16.1055 4.43537 14.4828 4.43537 14.4828C4.01032 13.4312 3.38054 13.1609 3.38054 13.1609C2.51488 12.605 3.44359 12.605 3.44359 12.605C4.40384 12.6651 4.90771 13.5364 4.90771 13.5364C5.7576 14.9185 7.12713 14.528 7.67809 14.2876C7.75672 13.7016 8.00875 13.296 8.27635 13.0707C6.16688 12.8603 3.94746 12.0791 3.94746 8.59353C3.94746 7.60196 4.32502 6.79071 4.92327 6.15978C4.82889 5.93447 4.49823 5.00283 5.01786 3.7559C5.01786 3.7559 5.82066 3.51547 7.6308 4.68736C8.40578 4.48873 9.20501 4.38768 10.0079 4.38683C10.8107 4.38683 11.629 4.49211 12.3847 4.68736C14.1951 3.51547 14.9979 3.7559 14.9979 3.7559C15.5175 5.00283 15.1866 5.93447 15.0923 6.15978C15.7063 6.79071 16.0683 7.60196 16.0683 8.59353C16.0683 12.0791 13.8488 12.8452 11.7236 13.0707C12.07 13.3561 12.369 13.8969 12.369 14.7533C12.369 15.9702 12.3534 16.9468 12.3534 17.2472C12.3534 17.4876 12.5266 17.7732 12.9987 17.683C16.7767 16.4809 19.5 13.0856 19.5 9.07438C19.5155 4.05625 15.2497 0 10.0079 0Z" fill="#A1A1A1"/>
</g>
<defs>
<clipPath id="clip0_386_669">
<rect width="19" height="18" fill="white" transform="translate(0.5)"/>
</clipPath>
</defs>
</svg>
