<svg width="20" height="18" viewBox="0 0 20 18" fill="none" xmlns="http://www.w3.org/2000/svg">
<g clip-path="url(#clip0_386_665)">
<path d="M10 1.6207C12.5383 1.6207 12.8389 1.63125 13.8371 1.67344C14.7648 1.71211 15.2658 1.85977 15.5998 1.98281C16.0414 2.14453 16.3605 2.34141 16.6908 2.6543C17.0248 2.9707 17.2289 3.26953 17.3996 3.68789C17.5295 4.0043 17.6854 4.48242 17.7262 5.35781C17.7707 6.30703 17.7818 6.5918 17.7818 8.99297C17.7818 11.3977 17.7707 11.6824 17.7262 12.6281C17.6854 13.507 17.5295 13.9816 17.3996 14.298C17.2289 14.7164 17.0211 15.0187 16.6908 15.3316C16.3568 15.648 16.0414 15.8414 15.5998 16.0031C15.2658 16.1262 14.7611 16.2738 13.8371 16.3125C12.8352 16.3547 12.5346 16.3652 10 16.3652C7.46172 16.3652 7.16113 16.3547 6.16289 16.3125C5.23516 16.2738 4.73418 16.1262 4.4002 16.0031C3.95859 15.8414 3.63945 15.6445 3.30918 15.3316C2.9752 15.0152 2.77109 14.7164 2.60039 14.298C2.47051 13.9816 2.31465 13.5035 2.27383 12.6281C2.2293 11.6789 2.21816 11.3941 2.21816 8.99297C2.21816 6.58828 2.2293 6.30351 2.27383 5.35781C2.31465 4.47891 2.47051 4.0043 2.60039 3.68789C2.77109 3.26953 2.97891 2.96719 3.30918 2.6543C3.64316 2.33789 3.95859 2.14453 4.4002 1.98281C4.73418 1.85977 5.23887 1.71211 6.16289 1.67344C7.16113 1.63125 7.46172 1.6207 10 1.6207ZM10 0C7.4209 0 7.09805 0.0105469 6.08496 0.0527344C5.07559 0.0949219 4.38164 0.249609 3.78047 0.471094C3.15332 0.703125 2.62266 1.00898 2.0957 1.51172C1.56504 2.01094 1.24219 2.51367 0.997266 3.1043C0.763477 3.67734 0.600195 4.33125 0.555664 5.2875C0.511133 6.25078 0.5 6.55664 0.5 9C0.5 11.4434 0.511133 11.7492 0.555664 12.709C0.600195 13.6652 0.763477 14.3227 0.997266 14.8922C1.24219 15.4863 1.56504 15.9891 2.0957 16.4883C2.62266 16.9875 3.15332 17.2969 3.77676 17.5254C4.38164 17.7469 5.07188 17.9016 6.08125 17.9437C7.09434 17.9859 7.41719 17.9965 9.99629 17.9965C12.5754 17.9965 12.8982 17.9859 13.9113 17.9437C14.9207 17.9016 15.6147 17.7469 16.2158 17.5254C16.8393 17.2969 17.3699 16.9875 17.8969 16.4883C18.4238 15.9891 18.7504 15.4863 18.9916 14.8957C19.2254 14.3227 19.3887 13.6687 19.4332 12.7125C19.4777 11.7527 19.4889 11.4469 19.4889 9.00352C19.4889 6.56016 19.4777 6.2543 19.4332 5.29453C19.3887 4.33828 19.2254 3.68086 18.9916 3.11133C18.7578 2.51367 18.435 2.01094 17.9043 1.51172C17.3773 1.0125 16.8467 0.703125 16.2232 0.474609C15.6184 0.253125 14.9281 0.0984375 13.9188 0.05625C12.902 0.0105469 12.5791 0 10 0Z" fill="#A1A1A1"/>
<path d="M10 4.37695C7.30586 4.37695 5.12012 6.44766 5.12012 9C5.12012 11.5523 7.30586 13.623 10 13.623C12.6941 13.623 14.8799 11.5523 14.8799 9C14.8799 6.44766 12.6941 4.37695 10 4.37695ZM10 11.9988C8.25215 11.9988 6.83457 10.6559 6.83457 9C6.83457 7.34414 8.25215 6.00117 10 6.00117C11.7479 6.00117 13.1654 7.34414 13.1654 9C13.1654 10.6559 11.7479 11.9988 10 11.9988Z" fill="#A1A1A1"/>
<path d="M16.2121 4.19417C16.2121 4.79182 15.7 5.27347 15.0729 5.27347C14.442 5.27347 13.9336 4.78831 13.9336 4.19417C13.9336 3.59651 14.4457 3.11487 15.0729 3.11487C15.7 3.11487 16.2121 3.60003 16.2121 4.19417Z" fill="#A1A1A1"/>
</g>
<defs>
<clipPath id="clip0_386_665">
<rect width="19" height="18" fill="white" transform="translate(0.5)"/>
</clipPath>
</defs>
</svg>
