<svg width="737" height="152" viewBox="0 0 737 152" fill="none" xmlns="http://www.w3.org/2000/svg">
<g clip-path="url(#clip0_376_685)">
<path d="M359.556 1L1 151H736L609.75 100.694L547.778 76L359.556 1Z" fill="black"/>
<path d="M547.778 38V76L609.75 100.694V38H547.778Z" fill="black"/>
<path d="M547.778 76L359.556 1L1 151H736L609.75 100.694M547.778 76V38H609.75V100.694M547.778 76L609.75 100.694" stroke="black"/>
<path d="M477.68 124.428H473.807V120.16H469.934V98.8211H473.807V94.5533H477.68V90.2856H493.174V94.5533H497.047C497.047 100.244 497.047 103.089 497.047 103.089H493.174V98.8211H489.3V94.5533H481.554V98.8211H477.68V120.16H481.554V124.428H489.3V128.695H477.68V124.428ZM493.174 124.428H489.3C489.3 118.737 489.3 115.892 489.3 115.892H481.554V111.624H497.047C497.047 123.005 497.047 128.695 497.047 128.695H493.174V124.428Z" fill="white"/>
<path d="M440.829 124.428H436.956V94.5533H440.829V90.2856H460.196V94.5533H464.069V124.428H460.196V128.695H440.829V124.428ZM444.702 124.428H456.322V94.5533H444.702V124.428Z" fill="white"/>
<path d="M419.471 94.5533H415.598V124.428H423.345V120.16H427.218V115.892H431.091V128.695H403.978V124.428H407.851V94.5533H403.978V90.2856H419.471V94.5533Z" fill="white"/>
<path d="M374.873 124.428V94.5533H371V90.2856H394.24V94.5533H398.113V107.357H394.24V111.624H398.113V124.428H394.24V128.695H371V124.428H374.873ZM382.62 124.428H390.367V111.624H382.62V124.428ZM382.62 107.357H390.367V94.5533H382.62V107.357Z" fill="white"/>
<path d="M422.558 82.1321H418.909V86.1529H400.662V82.1321H397.013V78.1113H404.312V82.1321H415.259V78.1113H407.961V74.0904H400.662V70.0696H397.013V66.0488H400.662V62.028H418.909V66.0488H422.558V70.0696H415.259V66.0488H404.312V70.0696H411.61V74.0904H418.909V78.1113H422.558V82.1321Z" fill="white"/>
<path d="M386.883 64.3689V68.3897H383.234V64.3689H386.883ZM386.883 64.3689V60.3481H383.234C383.234 54.987 383.234 52.3064 383.234 52.3064H386.883V48.2856H390.532V52.3064H394.181C394.181 57.6675 394.181 60.3481 394.181 60.3481H390.532V64.3689H386.883Z" fill="white"/>
<path d="M373.719 86.1529H359.122V82.1321H362.771V53.9863H359.122V49.9655H373.719V53.9863H370.07V82.1321H373.719V86.1529Z" fill="white"/>
<path d="M325.549 49.9655H332.847V53.9863H336.497V58.0072H340.146V62.028H343.795V49.9655H351.093V86.1529H343.795V74.0904H340.146V70.0696H336.497V66.0488H332.847V86.1529H325.549V49.9655Z" fill="white"/>
<path d="M321.17 86.1529H306.573V82.1321H310.222V53.9863H306.573V49.9655H321.17V53.9863H317.521V82.1321H321.17V86.1529Z" fill="white"/>
<path d="M287.597 82.1321V86.1529H283.948V82.1321H280.298V78.1112H276.649V74.0904H273C273 58.0072 273 49.9655 273 49.9655H280.298C280.298 66.0488 280.298 74.0904 280.298 74.0904H283.948V78.1112H287.597V74.0904H291.246C291.246 58.0072 291.246 49.9655 291.246 49.9655H298.545C298.545 66.0488 298.545 74.0904 298.545 74.0904H294.895V78.1112H291.246V82.1321H287.597Z" fill="white"/>
</g>
<defs>
<clipPath id="clip0_376_685">
<rect width="737" height="152" fill="white"/>
</clipPath>
</defs>
</svg>
